<svg xmlns="http://www.w3.org/2000/svg" height="1166.929" width="1011.152"><defs><clipPath id="a"><path d="M0 875.197h758.364V0H0z"/></clipPath></defs><g clip-path="url(#a)" transform="matrix(1.33333 0 0 -1.33333 0 1166.93)"><path d="M758.364 0l-124.71.07c-7.44 37.92 10.71 212.42 10.71 212.42-19.82-38.71-26.29-208.13-26.45-212.41L420.934.2l-23.31 294.17c.58.59 1.04 1.31 1.33 2.13l13.7 38.06c1.26 3.49-.93 7.15-4.37 7.86 13.17-2.02 35.37-10.31 60.97-40 0 0 37.39 53.26 39.22 95.21 0 0 131.33-53.81 187.87-84.82 56.54-31 62.02-312.81 62.02-312.81" fill="#f3f1f0"/><path d="M644.364 212.49S626.214 37.99 633.654.07l-15.74.01c.16 4.28 6.63 173.7 26.45 212.41" fill="#d2d2d2"/><path d="M508.454 679.11l.05.01c.15-.7.78-1.14 1.44-1.14.38 0 .77.15 1.07.49 7.3 8.28 13.52-1.41 14.61-3.29.12-.19.18-.41.2-.63 5.5-87.42-19.56-90.04-25.94-89.32-.8.09-1.52-.52-1.59-1.32l-.31-3.42-2.56-23a133.912 133.912 0 0 0-23.89-62.73l-1.86-2.98c-.07-.04-.13-.1-.19-.16-12.6-13.12-70.24-68.86-117.88-43.83-16.9 8.88-31.37 19.65-43.28 30.25a129.808 129.808 0 0 0-19.41 21.63c-13.59 18.99-22 41.44-24.29 65.02l-1.41 14.58c-.04.47-.31.89-.73 1.12-4.39 2.52-29.44 18.35-29.44 51.62 0 36.48-.91 49.25 8.21 48.34 5.32-.53 8.78-3.24 10.74-5.4.83-.92 2.36-.48 2.54.76l.33 2.35c.05.3 0 .61-.15.88-.01.02-.03.05-.04.08 2.15 7.2 29.74 95.02 96.86 106.53 0 0 51 13 62-16 0 0 11 15 0 30 0 0 25-20 26-43 0 0 14 8 12 20 0 0 45.78-19.9 56.92-97.44" fill="#ffcfae"/><path d="M523.974 769.73c9.1-40.83-9.6-77.41-10.87-80.1-.04-.1-.1-.19-.17-.28-.66-.83-4.46-5.75-4.46-9.91 0-.11.01-.22.03-.32l-.05-.01c-11.14 77.54-56.92 97.44-56.92 97.44 2-12-12-20-12-20-1 23-26 43-26 43 11-15 0-30 0-30-11 29-62 16-62 16-67.12-11.51-94.71-99.33-96.86-106.53-2.32 4.49-19.75 39.15-18.89 70.64.91 33.75 18.24 74.79 47.42 94.85 29.19 20.06 65.67 33.74 111.27 30.1 0 0 104.94 5.29 129.5-104.88" fill="#451c00"/><path d="M508.474 397.63c-1.83-41.95-39.22-95.21-39.22-95.21-25.6 29.69-47.8 37.98-60.97 40-.14.03-.27.05-.4.06-.09.02-.18.04-.27.04-7.66 1.09-12.08.03-12.08.03 16.85 22.8 76.46 75.14 76.46 75.14v20.86c10.03 3.65 36.48-40.92 36.48-40.92" fill="#f3f1f0"/><path d="M469.674 491.78c.92.7 2.32.05 2.32-1.17v-72.92s-59.61-52.34-76.46-75.14h-28c-7.3 14.59-79.31 77.42-79.31 77.42v12.58c-.15.02-.31.03-.46.03v66.28l1.15.81c5.6-7.86 12.1-15.12 19.41-21.63 11.91-10.6 26.38-21.37 43.28-30.25 47.64-25.03 105.28 30.71 117.88 43.83.06.06.12.12.19.16" fill="#ffc5a7"/><path d="M397.624 294.37L420.934.2l-85.81.05v1.8l27.62 293.44c1.06-1.79 3-2.94 5.15-2.94h25.44c1.65 0 3.19.68 4.29 1.82" fill="#0044ab"/><path d="M362.744 295.49c-.22.38-.4.78-.54 1.21l-12.18 38.06c-1.23 3.85 1.64 7.79 5.69 7.79h51.33c.19 0 .38-.01.57-.03.09-.01.18-.02.27-.04.13-.01.26-.03.4-.06 3.44-.71 5.63-4.37 4.37-7.86l-13.7-38.06a5.775 5.775 0 0 0-1.33-2.13 5.958 5.958 0 0 0-4.29-1.82h-25.44c-2.15 0-4.09 1.15-5.15 2.94" fill="#0044ab"/><path d="M367.534 342.55h-11.82c-4.05 0-6.92-3.94-5.69-7.79l12.18-38.06c.14-.43.32-.83.54-1.21L335.124 2.05V.25l-180.37.11c-.08 8.71-1.81 172.21-29.32 213.05 0 0 19.56-168.7 6.75-213.04L.034.45s-3.65 269.04 64.75 313.73 188.78 78.43 188.78 78.43 20.98-74.23 36.48-94.29c0 0 40.49 50.23 77.49 44.23" fill="#f3f1f0"/><path d="M287.764 432.58c.15 0 .31-.01.46-.03v-12.58s72.01-62.83 79.31-77.42c-37 6-77.49-44.23-77.49-44.23-15.5 20.06-36.48 94.29-36.48 94.29s16.14 41.06 34.2 39.97" fill="#f3f1f0"/><path d="M154.754.36l-22.57.01c12.81 44.34-6.75 213.04-6.75 213.04 27.51-40.84 29.24-204.34 29.32-213.05" fill="#d2d2d2"/></g></svg>